<svg version="1.1" id="Livello_1" x="0px"
     y="0px"
     viewBox="0 0 595.28 641.89" style="enable-background:new 0 0 595.28 841.89;">
    <g>
        <path d="M428.16,578.5c-5.47-2.8-8.35-7.6-9.84-12.2c-1.86-5.76-5.06-11.17-4.94-17.77
		c0.12-6.59-3.71-12.04-7.55-17.11c-0.63-1.38-0.92-3.23-1.99-3.98c-0.84-0.59-2.74-0.07-4,0.4c-5.9,2.23-11.77,4.54-17.59,6.99
		c-1.45,0.61-2.53,2.07-3.96,2.74c-2.99,1.38-6.07,2.59-9.18,3.68c-3.18,1.12-6.41,2.14-9.68,3c-4.61,1.22-9.24,2.5-13.93,3.3
		c-2.88,0.49-5.92,0.01-8.87,0.19c-1.23,0.08-2.4,0.91-3.65,1.09c-3.02,0.44-6.08,0.71-9.46,1.08c0.43,1.21,1.12,2.62,1.39,4.09
		c0.5,2.72,0.8,5.47,1.11,8.22c0.23,2.06,0.26,4.13,0.5,6.19c0.47,3.96,1.21,7.89,1.5,11.86c0.35,4.69,1.33,9.54-0.59,14.04
		c-1.69,3.94-3.88,7.69-6.13,11.35c-0.87,1.42-4.21,0.37-5.68-2.07c-3.95-6.58-7.78-13.68-8.02-21.2c-0.19-5.9-2.1-11.24-2.79-16.9
		c-0.37-3.04-2.78-5.8-3.94-8.81c-0.58-1.51-0.46-3.31-0.57-4.98c-0.05-0.79,0.08-1.6,0.17-2.95c-2.77-0.29-5.42-0.54-8.06-0.85
		c-2.19-0.26-4.38-0.49-6.54-0.91c-3.75-0.72-7.44-1.71-11.2-2.34c-5.7-0.96-11.49-1.47-17.14-2.64c-3.25-0.67-6.35-2.18-9.45-3.47
		c-4.34-1.8-8.72-3.53-12.89-5.67c-4.69-2.41-9.72-3.03-14.78-3.81c-1.13-0.18-2.26-0.88-3.21-1.58c-3.69-2.77-8.22-3.35-12.4-4.77
		c-2.45-0.83-6.88,3.2-6.99,5.8c-0.13,2.99,0.07,6-0.11,8.99c-0.08,1.36-1.05,2.69-1.08,4.04c-0.09,3.85,0.23,7.7,0.11,11.54
		c-0.06,1.74-0.67,3.5-1.23,5.19c-0.76,2.29-1.99,4.45-2.54,6.78c-1.14,4.86-6,7.15-10.25,4.59c-0.43-0.26-0.83-0.57-1.16-0.8
		c-0.54,1.12-1.05,2.18-1.57,3.25c-0.3,0.03-0.61,0.06-0.91,0.09c-1.14-3.55-2.58-7.04-3.35-10.67c-0.91-4.31-1.69-8.75-1.72-13.13
		c-0.03-4.25,0.73-8.55,1.58-12.74c1-4.89,2.47-9.69,3.77-14.52c0.15-0.55,0.48-1.07,0.81-1.56c1.52-2.27,3.18-4.45,4.51-6.82
		c0.29-0.52-0.33-2-0.96-2.48c-1.65-1.27-3.61-2.14-5.32-3.34c-3.23-2.27-6.52-4.49-9.52-7.04c-2.76-2.34-5.16-5.1-7.78-7.61
		c-1.04-1-2.3-1.77-3.33-2.78c-2.49-2.43-4.97-4.88-7.32-7.45c-1.6-1.75-3.22-3.56-4.4-5.59c-2.92-5-5.72-10.07-8.24-15.28
		c-0.41-0.84,0.83-2.49,1.31-3.76c1.07,0.64,2.36,1.07,3.18,1.94c4.64,4.9,9.11,9.97,13.78,14.85c1.38,1.44,3.21,2.43,4.81,3.67
		c5.05,3.92,9.81,8.3,15.2,11.67c5.74,3.59,11.95,6.57,18.22,9.16c3.08,1.27,6.53,2.88,10.32,0.92c1.01-0.52,3.14,0.65,4.53,1.45
		c1.83,1.06,3.31,2.75,5.17,3.75c4.46,2.4,8.94,4.83,13.63,6.72c2.83,1.15,6.12,1.11,9.1,1.97c7.88,2.27,15.65,4.93,23.55,7.09
		c10.43,2.86,20.83,6.37,31.48,7.68c5.91,0.72,12.18,2.47,18.51,0.64c2.79-0.81,6.08,0.31,9.13,0.18
		c4.97-0.21,10.01-0.27,14.85-1.26c4.83-0.99,9.41-3.14,14.15-4.61c3.66-1.14,7.43-1.89,11.07-3.06c2.44-0.79,5.04-1.62,7.02-3.14
		c2.53-1.96,5.18-2.87,8.24-3.27c1.19-0.16,2.26-1.04,3.43-1.48c7.94-2.94,14.67-7.82,21.18-13.06c0.38-0.3,0.83-0.54,1.28-0.73
		c1.95-0.82,3.86-2.15,5.87-2.31c4.97-0.39,8.05-4.06,11.9-6.3c4.24-2.47,8.21-5.44,12.07-8.48c3.08-2.43,5.79-5.33,8.72-7.97
		c2.19-1.98,4.31-4.09,6.74-5.74c2.03-1.39,4.47-2.18,6.7-3.27c1.17-0.57,2.29-1.22,3.49-1.87c-1.19,6.32-2.12,12.73-3.7,18.97
		c-0.61,2.43-2.5,4.62-4.1,6.69c-4.11,5.3-8.26,10.58-12.67,15.63c-1.87,2.15-4.38,3.78-6.71,5.48c-3.94,2.87-7.97,5.62-12.48,8.78
		c1.31,0.76,2.32,1.23,3.21,1.88c1.76,1.31,3.75,2.47,5.11,4.13c2.37,2.9,4.22,6.21,6.49,9.2c1.99,2.62,3.36,5.2,3.12,8.73
		c-0.13,1.95,1.25,3.96,1.74,5.99c1.45,5.97,0.38,11.86-0.73,17.74C434.76,570.99,431.38,574.67,428.16,578.5z"/>
        <path d="M418.44,317.94c1.67,3.15,3.2,6.38,5.03,9.43c2.67,4.46,4.76,9.73,8.54,12.97c5.4,4.63,8.36,10.73,12.6,16.01
		c4.56,5.69,7.09,12.35,10.19,18.75c2.31,4.77,0.19,9.22-1.48,13.62c-0.17,0.45-1.13,0.7-1.78,0.87c-1.25,0.33-2.52,0.53-3.43,0.71
		c-1.52-0.97-3.07-1.69-4.29-2.79c-3.87-3.5-7.92-6.87-11.33-10.78c-4.1-4.71-7.62-9.93-11.41-14.92c-0.37-0.49-0.88-0.87-1.19-1.38
		c-1.37-2.25-2.55-4.62-4.05-6.78c-1.95-2.8-4.09-5.47-6.23-8.13c-0.55-0.68-1.36-1.21-2.15-1.64c-3.79-2.05-5.73-5.43-7.71-9.15
		c-2.02-3.81-5.1-7.13-8.07-10.35c-4.15-4.5-9.36-7.99-12.19-13.74c-0.68-1.38-2.7-2.04-3.94-3.21c-3.22-3.04-6.55-6-9.45-9.33
		c-3.65-4.2-8.72-5.74-13.43-7.99c-4.23-2.02-8.46-4.07-12.81-5.82c-3.05-1.23-6.3-1.98-9.46-2.94c-3.1-0.94-6.18-1.96-9.3-2.79
		c-1.07-0.28-2.27-0.21-3.39-0.13c-1.67,0.12-3.48,0.91-4.97,0.48c-3.69-1.06-7.25-0.96-10.9-0.06c-0.49,0.12-1.13-0.23-1.65-0.47
		c-1.8-0.81-3.56-1.67-5.03,0.6c-0.22,0.34-0.87,0.55-1.33,0.58c-4.39,0.22-8.79,0.24-13.16,0.64c-2.1,0.19-4.13,1.15-6.22,1.62
		c-1.76,0.39-3.57,0.8-5.37,0.81c-3.39,0.02-6.4,0.7-9.6,2.17c-4.77,2.2-10.39,2.59-15.07,4.92c-5.55,2.76-12.01,3.43-16.89,7.69
		c-1.47,1.28-3.54,1.86-5.27,2.88c-3.94,2.31-7.98,4.51-11.74,7.09c-5.65,3.88-11.3,7.81-16.57,12.18
		c-6.49,5.38-12.86,10.96-18.75,16.97c-3.66,3.74-6.31,8.46-9.47,12.7c-0.79,1.06-1.73,2.02-2.69,2.93
		c-4.95,4.69-9.2,9.67-10.96,16.64c-0.99,3.93-3.68,7.41-5.32,11.21c-1.35,3.12-2.23,6.43-3.44,9.62c-0.57,1.49-1.58,2.83-2.09,4.34
		c-1.13,3.36-2.01,6.8-3.11,10.17c-0.26,0.79-0.96,1.44-1.48,2.2c-3.84-1.98-4.13-5.23-4.01-8.7c0.08-2.39,0.11-4.79-0.01-7.18
		c-0.2-4.1,1.28-7.82,2.4-11.63c0.17-0.58,0.7-1.18,0.61-1.69c-0.84-4.8,2.57-8.13,4.1-12.1c0.32-0.84,0.94-1.76,0.83-2.55
		c-0.5-3.4,1.53-5.57,3.43-7.88c0.76-0.93,1.47-1.99,1.86-3.11c3.15-8.99,9.74-15.64,15.54-22.8c2.93-3.62,6.05-7.12,9.4-10.35
		c4.75-4.57,9.81-8.81,14.68-13.25c1.04-0.94,1.7-2.34,2.8-3.16c4.08-3.05,7.93-6.84,12.53-8.67c5.72-2.27,8.6-7.85,14.06-10.14
		c4.85-2.03,9.55-4.41,14.32-6.63c5.21-2.43,10.38-4.94,15.65-7.22c1.29-0.56,2.9-0.38,4.36-0.53c0.94-0.09,2.13,0.19,2.79-0.28
		c4.46-3.13,9.66-3.86,14.79-4.83c0.3-0.06,0.65-0.04,0.89-0.2c4.76-3.2,10.5-1.17,15.75-3.28c-0.13-0.49-0.12-1.46-0.58-2.05
		c-2.91-3.72-3.87-8.04-4.54-12.6c-0.77-5.27-2.16-10.44-2.89-15.71c-0.32-2.35,0.02-4.9,0.58-7.23c0.99-4.09,0.41-8.28,0.87-12.25
		c0.89-7.53,0.8-15.66,6.34-21.97c0.37-0.43,0.51-1.07,0.72-1.63c1.36-3.7,6.54-6.84,10.46-5.98c1.43,0.32,3.07,1.31,3.88,2.49
		c3.17,4.63,4.36,9.94,3.24,15.4c-1.02,5-0.05,9.62,1.55,14.19c0.76,2.17,2.23,4.11,1.13,6.57c-0.11,0.26-0.12,0.66,0.01,0.91
		c1.64,3.25,0.55,6.25-0.6,9.36c-1.37,3.74,1.72,6.66,2.21,10.09c0.08,0.54,0.67,1.1,0.59,1.57c-0.78,4.56-1.69,9.11-2.45,13.67
		c-0.1,0.62,0.22,1.59,0.7,1.98c2.15,1.77,4.69,2.44,7.5,2.41c1.98-0.02,3.96,0.36,5.94,0.46c2.32,0.12,4.68-0.08,6.97,0.23
		c3.01,0.4,5.98,1.13,8.95,1.79c0.77,0.17,1.46,0.85,2.2,0.89c7.68,0.41,13.85,5.22,21,7.29c4.4,1.27,8.12,4.91,12.14,7.49
		c1.26,0.81,2.56,1.56,3.74,2.47c3.87,3.01,7.6,6.2,11.56,9.1c2.25,1.65,5.57,2.33,7.07,4.42c2.23,3.09,6.29,4.01,7.9,7.74
		c0.63,1.47,2.82,2.19,4.03,3.5c2.21,2.4,4.14,5.07,6.37,7.46c0.67,0.72,1.93,0.89,2.93,1.31
		C414.78,314.97,416.61,316.45,418.44,317.94z"/>
        <path d="M305.54,408.93c-1.17,2.62-3.95,5.54-1.59,9.57c1.23-0.35,2.51-0.71,4.06-1.15c1.26,1.66,2.94,3.58,5.79,1.33
		c0.07-0.06,0.2-0.1,0.29-0.08c3.82,0.67,7.8,0.9,11.4,2.18c3.16,1.12,1.85,4.33,1.44,6.74c-0.32,1.86-1.04,3.64-1.93,4.97
		c-2.45,1.93-4.89,3.87-7.36,5.77c-0.62,0.47-1.31,0.96-2.04,1.15c-1.88,0.48-3.89,0.59-5.7,1.23c-3.41,1.21-6.31,0.45-9.31-1.37
		c-4.31-2.61-8.82-4.88-13.24-7.32c-0.34-0.19-0.68-0.48-0.88-0.81c-2.47-4.04-4.92-8.1-7.31-12.05c2.34-3.46,3.14-7.14,2.93-11.13
		c-0.13-2.49,0.23-4.68,1.53-7.16c2.65-5.03,6.46-8.99,10.1-13.13c0.59-0.67,2.27-0.47,3.45-0.52c1.54-0.07,3.1,0.17,4.62,0
		c3.28-0.35,6.03,0.8,8.46,2.8c1.34,1.1,2.48,2.44,3.71,3.67c3.43,3.43,3.82,8.85,0.15,11.95
		C312.04,407.29,308.84,407.69,305.54,408.93z"/>
    </g>
</svg>
