<svg xmlns="http://www.w3.org/2000/svg" viewBox="0 0 156.57 234.76"><defs><style>.cls-1{fill:#406671;}.cls-2{fill:#eeca5a;}.cls-3{fill:#fd5e8d;}.cls-4{fill:#fff;}</style></defs><title>Marker bordi rosa</title><g id="Livello_4" data-name="Livello 4"><circle class="cls-1" cx="76.71" cy="79.38" r="41.9"/></g><g id="Livello_1" data-name="Livello 1"><path id="traccia_gialla" data-name="traccia gialla" class="cls-2" d="M148.59,284.17a50.52,50.52,0,0,1-4-5.39q-31.14-56.17-62.18-112.4c-6.56-11.85-10.23-24.5-10.18-38,.08-22.71,8.3-42.09,24.84-57.76A75.24,75.24,0,0,1,134.5,51.1c19.38-3.92,37.82-1.07,55,8.86C207,70.1,219,85,225,104.22c6.59,21.17,4.57,41.81-6.15,61.31Q187.27,223,155.37,280.34c-.82,1.48-2.36,2.56-3.57,3.83Zm2.17-195.66a39.13,39.13,0,1,0,38.73,39.81C190.06,106.83,172.82,89.11,150.76,88.51Z" transform="translate(-72.22 -49.41)"/><path class="cls-1" d="M148.63,281.13a46.33,46.33,0,0,1-3.94-5.3q-30.6-55.2-61.11-110.44c-6.44-11.64-10-24.08-10-37.37C73.66,105.7,81.74,86.66,98,71.26a73.88,73.88,0,0,1,36.79-19.15c19-3.85,37.16-1,54,8.71,17.21,10,29,24.56,34.92,43.49,6.48,20.8,4.49,41.08-6,60.24Q186.63,221,155.29,277.37c-.81,1.45-2.32,2.51-3.51,3.76Zm2.12-192.25A38.44,38.44,0,1,0,188.81,128C189.38,106.87,172.44,89.46,150.75,88.88Z" transform="translate(-72.22 -49.41)"/></g><g id="Occhio_blu" data-name="Occhio blu"><path class="cls-1" d="M175.1,158.73a3.83,3.83,0,0,1-1.89-2.34,10.11,10.11,0,0,1-1-3.42,5.5,5.5,0,0,0-1.46-3.3c-.12-.26-.17-.62-.38-.76s-.53,0-.77.07c-1.13.43-2.27.88-3.38,1.35-.28.12-.49.4-.77.53-.57.26-1.16.5-1.76.71s-1.24.41-1.87.57a26.8,26.8,0,0,1-2.68.64c-.55.09-1.14,0-1.7,0a6.36,6.36,0,0,0-.71.21c-.58.08-1.17.13-1.82.21a4.2,4.2,0,0,1,.27.78c.1.53.16,1.06.21,1.59s.05.79.1,1.19c.09.76.23,1.52.29,2.28a5.6,5.6,0,0,1-.11,2.7,18.48,18.48,0,0,1-1.18,2.19c-.17.27-.81.07-1.1-.4a8.89,8.89,0,0,1-1.54-4.08c0-1.14-.41-2.17-.54-3.26a7.87,7.87,0,0,0-.76-1.69,3.77,3.77,0,0,1-.11-1,4.8,4.8,0,0,1,0-.57l-1.56-.16c-.42,0-.84-.1-1.26-.18-.72-.14-1.43-.33-2.15-.45-1.1-.18-2.21-.28-3.3-.51a11,11,0,0,1-1.82-.66c-.83-.35-1.68-.68-2.48-1.1a9.08,9.08,0,0,0-2.84-.73,1.4,1.4,0,0,1-.62-.31,7.88,7.88,0,0,0-2.39-.91c-.47-.16-1.32.61-1.34,1.11s0,1.16,0,1.73c0,.27-.21.52-.21.78,0,.74,0,1.48,0,2.22a3.48,3.48,0,0,1-.24,1c-.15.44-.38.86-.49,1.31a1.3,1.3,0,0,1-2,.88l-.22-.15-.3.62-.18,0a18.85,18.85,0,0,1-.64-2.06,12.72,12.72,0,0,1-.34-2.52,12.09,12.09,0,0,1,.31-2.46c.19-.94.48-1.86.73-2.79a.85.85,0,0,1,.15-.3c.29-.44.61-.86.87-1.31a.58.58,0,0,0-.19-.48c-.31-.25-.69-.41-1-.64-.62-.44-1.25-.87-1.83-1.36s-1-1-1.5-1.46c-.2-.2-.44-.34-.64-.54-.48-.47-1-.94-1.41-1.43a6.73,6.73,0,0,1-.85-1.08c-.56-1-1.1-1.94-1.58-2.94-.08-.16.16-.48.25-.72a2.83,2.83,0,0,1,.61.37c.9.95,1.76,1.92,2.65,2.86a8.15,8.15,0,0,0,.93.71,36.49,36.49,0,0,0,2.92,2.24,23.08,23.08,0,0,0,3.51,1.77,2.23,2.23,0,0,0,2,.17c.19-.1.6.13.87.28s.64.53,1,.73a29.08,29.08,0,0,0,2.63,1.29c.54.22,1.18.21,1.75.38,1.52.44,3,1,4.53,1.36a43.16,43.16,0,0,0,6.06,1.48,8.73,8.73,0,0,0,3.57.13,7.93,7.93,0,0,1,1.75,0,18.09,18.09,0,0,0,2.86-.24c.93-.19,1.81-.61,2.72-.89.71-.22,1.43-.36,2.14-.59a4.56,4.56,0,0,0,1.35-.6,3,3,0,0,1,1.58-.63,3,3,0,0,0,.66-.29,14.53,14.53,0,0,0,4.08-2.51.77.77,0,0,1,.25-.14,3.87,3.87,0,0,1,1.13-.45c.95-.07,1.55-.78,2.29-1.21a20.6,20.6,0,0,0,2.32-1.63c.59-.47,1.12-1,1.68-1.54a12.39,12.39,0,0,1,1.3-1.1,9.07,9.07,0,0,1,1.29-.63l.67-.36c-.23,1.22-.41,2.45-.71,3.65a4,4,0,0,1-.79,1.29c-.8,1-1.59,2-2.44,3a7.31,7.31,0,0,1-1.29,1c-.76.56-1.54,1.09-2.41,1.69.26.15.45.24.62.36a5.51,5.51,0,0,1,1,.8c.46.56.82,1.2,1.25,1.77a2.34,2.34,0,0,1,.6,1.68,4.46,4.46,0,0,0,.34,1.16,8,8,0,0,1-.14,3.41A5.4,5.4,0,0,1,175.1,158.73Z" transform="translate(-72.22 -49.41)"/><path class="cls-1" d="M173.23,108.58c.32.61.62,1.23,1,1.82a9.66,9.66,0,0,0,1.64,2.5,20.31,20.31,0,0,1,2.43,3.08,18.55,18.55,0,0,1,2,3.61,3.18,3.18,0,0,1-.29,2.62c0,.09-.21.13-.34.17s-.48.1-.66.13a5.51,5.51,0,0,1-.82-.53,25.31,25.31,0,0,1-2.18-2.08c-.79-.91-1.47-1.91-2.2-2.87a3,3,0,0,1-.23-.27c-.26-.43-.49-.89-.78-1.3s-.79-1-1.2-1.57a1.27,1.27,0,0,0-.41-.31,3.94,3.94,0,0,1-1.49-1.76,9.27,9.27,0,0,0-1.55-2,11.84,11.84,0,0,1-2.34-2.65c-.13-.27-.52-.39-.76-.62-.62-.58-1.26-1.15-1.82-1.79a7.14,7.14,0,0,0-2.59-1.54c-.81-.39-1.63-.79-2.46-1.12-.59-.24-1.22-.38-1.82-.57s-1.19-.38-1.79-.54a2.42,2.42,0,0,0-.66,0c-.32,0-.67.18-1,.09a4,4,0,0,0-2.1,0,.56.56,0,0,1-.32-.09c-.35-.16-.69-.32-1,.12a.41.41,0,0,1-.25.11c-.85,0-1.7,0-2.54.12a10.43,10.43,0,0,0-1.19.31,4.59,4.59,0,0,1-1,.16,4.2,4.2,0,0,0-1.85.42c-.91.42-2,.49-2.9.94-1.07.53-2.31.66-3.25,1.48a6.55,6.55,0,0,1-1,.56c-.76.44-1.54.86-2.26,1.36-1.09.75-2.18,1.5-3.19,2.34a46.69,46.69,0,0,0-3.61,3.27,22.22,22.22,0,0,0-1.82,2.45,5.48,5.48,0,0,1-.52.56,6.66,6.66,0,0,0-2.11,3.2,15.7,15.7,0,0,1-1,2.16c-.26.6-.43,1.24-.67,1.85-.11.29-.3.55-.4.84-.21.64-.38,1.3-.6,2a1.58,1.58,0,0,1-.28.43,1.56,1.56,0,0,1-.77-1.68c0-.46,0-.92,0-1.38a6.58,6.58,0,0,1,.46-2.24c0-.11.13-.23.11-.33-.16-.92.5-1.56.79-2.33.07-.16.19-.33.16-.49a1.92,1.92,0,0,1,.66-1.51,2,2,0,0,0,.36-.6,15.52,15.52,0,0,1,3-4.39,22.86,22.86,0,0,1,1.81-2c.92-.88,1.89-1.7,2.83-2.55.2-.18.33-.45.54-.61a11.07,11.07,0,0,1,2.41-1.67c1.1-.44,1.65-1.51,2.71-2s1.83-.85,2.75-1.28,2-.95,3-1.39a2.89,2.89,0,0,1,.84-.1c.18,0,.41,0,.54,0a6.75,6.75,0,0,1,2.85-.93.47.47,0,0,0,.17,0c.91-.62,2-.23,3-.63a.89.89,0,0,0-.11-.4,4.8,4.8,0,0,1-.87-2.42c-.15-1-.42-2-.56-3a3.86,3.86,0,0,1,.11-1.39,19,19,0,0,0,.17-2.36c.17-1.45.15-3,1.22-4.23a1,1,0,0,0,.14-.31,2,2,0,0,1,2-1.15,1.31,1.31,0,0,1,.75.48,3.77,3.77,0,0,1,.62,3,5,5,0,0,0,.3,2.73c.15.42.43.79.22,1.27a.17.17,0,0,0,0,.17,2.14,2.14,0,0,1-.12,1.8c-.26.72.33,1.29.43,2,0,.1.13.21.11.3-.15.88-.32,1.75-.47,2.63a.45.45,0,0,0,.14.38,2.17,2.17,0,0,0,1.44.47c.38,0,.76.07,1.14.08s.9,0,1.34,0,1.16.22,1.73.34c.14,0,.28.17.42.17,1.48.08,2.67,1,4,1.41a9.6,9.6,0,0,1,2.34,1.44c.24.15.5.3.72.47.75.58,1.46,1.2,2.23,1.76.43.31,1.07.45,1.36.85.43.59,1.21.77,1.52,1.48.12.29.54.43.77.68.43.46.8,1,1.23,1.43a1.61,1.61,0,0,0,.56.26Z" transform="translate(-72.22 -49.41)"/><path class="cls-1" d="M151.5,126.1c-.23.5-.76,1.06-.31,1.84l.78-.22c.25.32.57.69,1.12.25,0,0,0,0,0,0a13.36,13.36,0,0,1,2.2.42c.61.21.35.83.28,1.29a2.58,2.58,0,0,1-.38,1l-1.41,1.11a1.31,1.31,0,0,1-.4.22,10.08,10.08,0,0,0-1.09.24,2,2,0,0,1-1.8-.27c-.83-.5-1.69-.94-2.54-1.4a.44.44,0,0,1-.17-.16l-1.41-2.32a3.38,3.38,0,0,0,.56-2.14,2.57,2.57,0,0,1,.3-1.38,13.38,13.38,0,0,1,1.94-2.53c.12-.13.44-.09.67-.1s.59,0,.88,0a2.13,2.13,0,0,1,1.63.54,9.63,9.63,0,0,1,.72.71,1.55,1.55,0,0,1,0,2.3A6.23,6.23,0,0,1,151.5,126.1Z" transform="translate(-72.22 -49.41)"/></g><g id="occhio_rosa" data-name="occhio rosa"><path class="cls-3" d="M175.1,158.73a3.83,3.83,0,0,1-1.89-2.34,10.11,10.11,0,0,1-1-3.42,5.5,5.5,0,0,0-1.46-3.3c-.12-.26-.17-.62-.38-.76s-.53,0-.77.07c-1.13.43-2.27.88-3.38,1.35-.28.12-.49.4-.77.53-.57.26-1.16.5-1.76.71s-1.24.41-1.87.57a26.8,26.8,0,0,1-2.68.64c-.55.09-1.14,0-1.7,0a6.36,6.36,0,0,0-.71.21c-.58.08-1.17.13-1.82.21a4.2,4.2,0,0,1,.27.78c.1.53.16,1.06.21,1.59s.05.79.1,1.19c.09.76.23,1.52.29,2.28a5.6,5.6,0,0,1-.11,2.7,18.48,18.48,0,0,1-1.18,2.19c-.17.27-.81.07-1.1-.4a8.89,8.89,0,0,1-1.54-4.08c0-1.14-.41-2.17-.54-3.26a7.87,7.87,0,0,0-.76-1.69,3.77,3.77,0,0,1-.11-1,4.8,4.8,0,0,1,0-.57l-1.56-.16c-.42,0-.84-.1-1.26-.18-.72-.14-1.43-.33-2.15-.45-1.1-.18-2.21-.28-3.3-.51a11,11,0,0,1-1.82-.66c-.83-.35-1.68-.68-2.48-1.1a9.08,9.08,0,0,0-2.84-.73,1.4,1.4,0,0,1-.62-.31,7.88,7.88,0,0,0-2.39-.91c-.47-.16-1.32.61-1.34,1.11s0,1.16,0,1.73c0,.27-.21.52-.21.78,0,.74,0,1.48,0,2.22a3.48,3.48,0,0,1-.24,1c-.15.44-.38.86-.49,1.31a1.3,1.3,0,0,1-2,.88l-.22-.15-.3.62-.18,0a18.85,18.85,0,0,1-.64-2.06,12.72,12.72,0,0,1-.34-2.52,12.09,12.09,0,0,1,.31-2.46c.19-.94.48-1.86.73-2.79a.85.85,0,0,1,.15-.3c.29-.44.61-.86.87-1.31a.58.58,0,0,0-.19-.48c-.31-.25-.69-.41-1-.64-.62-.44-1.25-.87-1.83-1.36s-1-1-1.5-1.46c-.2-.2-.44-.34-.64-.54-.48-.47-1-.94-1.41-1.43a6.73,6.73,0,0,1-.85-1.08c-.56-1-1.1-1.94-1.58-2.94-.08-.16.16-.48.25-.72a2.83,2.83,0,0,1,.61.37c.9.95,1.76,1.92,2.65,2.86a8.15,8.15,0,0,0,.93.71,36.49,36.49,0,0,0,2.92,2.24,23.08,23.08,0,0,0,3.51,1.77,2.23,2.23,0,0,0,2,.17c.19-.1.6.13.87.28s.64.53,1,.73a29.08,29.08,0,0,0,2.63,1.29c.54.22,1.18.21,1.75.38,1.52.44,3,1,4.53,1.36a43.16,43.16,0,0,0,6.06,1.48,8.73,8.73,0,0,0,3.57.13,7.93,7.93,0,0,1,1.75,0,18.09,18.09,0,0,0,2.86-.24c.93-.19,1.81-.61,2.72-.89.71-.22,1.43-.36,2.14-.59a4.56,4.56,0,0,0,1.35-.6,3,3,0,0,1,1.58-.63,3,3,0,0,0,.66-.29,14.53,14.53,0,0,0,4.08-2.51.77.77,0,0,1,.25-.14,3.87,3.87,0,0,1,1.13-.45c.95-.07,1.55-.78,2.29-1.21a20.6,20.6,0,0,0,2.32-1.63c.59-.47,1.12-1,1.68-1.54a12.39,12.39,0,0,1,1.3-1.1,9.07,9.07,0,0,1,1.29-.63l.67-.36c-.23,1.22-.41,2.45-.71,3.65a4,4,0,0,1-.79,1.29c-.8,1-1.59,2-2.44,3a7.31,7.31,0,0,1-1.29,1c-.76.56-1.54,1.09-2.41,1.69.26.15.45.24.62.36a5.51,5.51,0,0,1,1,.8c.46.56.82,1.2,1.25,1.77a2.34,2.34,0,0,1,.6,1.68,4.46,4.46,0,0,0,.34,1.16,8,8,0,0,1-.14,3.41A5.4,5.4,0,0,1,175.1,158.73Z" transform="translate(-72.22 -49.41)"/><path class="cls-3" d="M173.23,108.58c.32.61.62,1.23,1,1.82a9.66,9.66,0,0,0,1.64,2.5,20.31,20.31,0,0,1,2.43,3.08,18.55,18.55,0,0,1,2,3.61,3.18,3.18,0,0,1-.29,2.62c0,.09-.21.13-.34.17s-.48.1-.66.13a5.51,5.51,0,0,1-.82-.53,25.31,25.31,0,0,1-2.18-2.08c-.79-.91-1.47-1.91-2.2-2.87a3,3,0,0,1-.23-.27c-.26-.43-.49-.89-.78-1.3s-.79-1-1.2-1.57a1.27,1.27,0,0,0-.41-.31,3.94,3.94,0,0,1-1.49-1.76,9.27,9.27,0,0,0-1.55-2,11.84,11.84,0,0,1-2.34-2.65c-.13-.27-.52-.39-.76-.62-.62-.58-1.26-1.15-1.82-1.79a7.14,7.14,0,0,0-2.59-1.54c-.81-.39-1.63-.79-2.46-1.12-.59-.24-1.22-.38-1.82-.57s-1.19-.38-1.79-.54a2.42,2.42,0,0,0-.66,0c-.32,0-.67.18-1,.09a4,4,0,0,0-2.1,0,.56.56,0,0,1-.32-.09c-.35-.16-.69-.32-1,.12a.41.41,0,0,1-.25.11c-.85,0-1.7,0-2.54.12a10.43,10.43,0,0,0-1.19.31,4.59,4.59,0,0,1-1,.16,4.2,4.2,0,0,0-1.85.42c-.91.42-2,.49-2.9.94-1.07.53-2.31.66-3.25,1.48a6.55,6.55,0,0,1-1,.56c-.76.44-1.54.86-2.26,1.36-1.09.75-2.18,1.5-3.19,2.34a46.69,46.69,0,0,0-3.61,3.27,22.22,22.22,0,0,0-1.82,2.45,5.48,5.48,0,0,1-.52.56,6.66,6.66,0,0,0-2.11,3.2,15.7,15.7,0,0,1-1,2.16c-.26.6-.43,1.24-.67,1.85-.11.29-.3.55-.4.84-.21.64-.38,1.3-.6,2a1.58,1.58,0,0,1-.28.43,1.56,1.56,0,0,1-.77-1.68c0-.46,0-.92,0-1.38a6.58,6.58,0,0,1,.46-2.24c0-.11.13-.23.11-.33-.16-.92.5-1.56.79-2.33.07-.16.19-.33.16-.49a1.92,1.92,0,0,1,.66-1.51,2,2,0,0,0,.36-.6,15.52,15.52,0,0,1,3-4.39,22.86,22.86,0,0,1,1.81-2c.92-.88,1.89-1.7,2.83-2.55.2-.18.33-.45.54-.61a11.07,11.07,0,0,1,2.41-1.67c1.1-.44,1.65-1.51,2.71-2s1.83-.85,2.75-1.28,2-.95,3-1.39a2.89,2.89,0,0,1,.84-.1c.18,0,.41,0,.54,0a6.75,6.75,0,0,1,2.85-.93.47.47,0,0,0,.17,0c.91-.62,2-.23,3-.63a.89.89,0,0,0-.11-.4,4.8,4.8,0,0,1-.87-2.42c-.15-1-.42-2-.56-3a3.86,3.86,0,0,1,.11-1.39,19,19,0,0,0,.17-2.36c.17-1.45.15-3,1.22-4.23a1,1,0,0,0,.14-.31,2,2,0,0,1,2-1.15,1.31,1.31,0,0,1,.75.48,3.77,3.77,0,0,1,.62,3,5,5,0,0,0,.3,2.73c.15.42.43.79.22,1.27a.17.17,0,0,0,0,.17,2.14,2.14,0,0,1-.12,1.8c-.26.72.33,1.29.43,2,0,.1.13.21.11.3-.15.88-.32,1.75-.47,2.63a.45.45,0,0,0,.14.38,2.17,2.17,0,0,0,1.44.47c.38,0,.76.07,1.14.08s.9,0,1.34,0,1.16.22,1.73.34c.14,0,.28.17.42.17,1.48.08,2.67,1,4,1.41a9.6,9.6,0,0,1,2.34,1.44c.24.15.5.3.72.47.75.58,1.46,1.2,2.23,1.76.43.31,1.07.45,1.36.85.43.59,1.21.77,1.52,1.48.12.29.54.43.77.68.43.46.8,1,1.23,1.43a1.61,1.61,0,0,0,.56.26Z" transform="translate(-72.22 -49.41)"/><path class="cls-3" d="M151.5,126.1c-.23.5-.76,1.06-.31,1.84l.78-.22c.25.32.57.69,1.12.25,0,0,0,0,0,0a13.36,13.36,0,0,1,2.2.42c.61.21.35.83.28,1.29a2.58,2.58,0,0,1-.38,1l-1.41,1.11a1.31,1.31,0,0,1-.4.22,10.08,10.08,0,0,0-1.09.24,2,2,0,0,1-1.8-.27c-.83-.5-1.69-.94-2.54-1.4a.44.44,0,0,1-.17-.16l-1.41-2.32a3.38,3.38,0,0,0,.56-2.14,2.57,2.57,0,0,1,.3-1.38,13.38,13.38,0,0,1,1.94-2.53c.12-.13.44-.09.67-.1s.59,0,.88,0a2.13,2.13,0,0,1,1.63.54,9.63,9.63,0,0,1,.72.71,1.55,1.55,0,0,1,0,2.3A6.23,6.23,0,0,1,151.5,126.1Z" transform="translate(-72.22 -49.41)"/></g><g id="occhio_bianco" data-name="occhio bianco"><path class="cls-4" d="M175.1,158.73a3.83,3.83,0,0,1-1.89-2.34,10.11,10.11,0,0,1-1-3.42,5.5,5.5,0,0,0-1.46-3.3c-.12-.26-.17-.62-.38-.76s-.53,0-.77.07c-1.13.43-2.27.88-3.38,1.35-.28.12-.49.4-.77.53-.57.26-1.16.5-1.76.71s-1.24.41-1.87.57a26.8,26.8,0,0,1-2.68.64c-.55.09-1.14,0-1.7,0a6.36,6.36,0,0,0-.71.21c-.58.08-1.17.13-1.82.21a4.2,4.2,0,0,1,.27.78c.1.53.16,1.06.21,1.59s.05.79.1,1.19c.09.76.23,1.52.29,2.28a5.6,5.6,0,0,1-.11,2.7,18.48,18.48,0,0,1-1.18,2.19c-.17.27-.81.07-1.1-.4a8.89,8.89,0,0,1-1.54-4.08c0-1.14-.41-2.17-.54-3.26a7.87,7.87,0,0,0-.76-1.69,3.77,3.77,0,0,1-.11-1,4.8,4.8,0,0,1,0-.57l-1.56-.16c-.42,0-.84-.1-1.26-.18-.72-.14-1.43-.33-2.15-.45-1.1-.18-2.21-.28-3.3-.51a11,11,0,0,1-1.82-.66c-.83-.35-1.68-.68-2.48-1.1a9.08,9.08,0,0,0-2.84-.73,1.4,1.4,0,0,1-.62-.31,7.88,7.88,0,0,0-2.39-.91c-.47-.16-1.32.61-1.34,1.11s0,1.16,0,1.73c0,.27-.21.52-.21.78,0,.74,0,1.48,0,2.22a3.48,3.48,0,0,1-.24,1c-.15.44-.38.86-.49,1.31a1.3,1.3,0,0,1-2,.88l-.22-.15-.3.62-.18,0a18.85,18.85,0,0,1-.64-2.06,12.72,12.72,0,0,1-.34-2.52,12.09,12.09,0,0,1,.31-2.46c.19-.94.48-1.86.73-2.79a.85.85,0,0,1,.15-.3c.29-.44.61-.86.87-1.31a.58.58,0,0,0-.19-.48c-.31-.25-.69-.41-1-.64-.62-.44-1.25-.87-1.83-1.36s-1-1-1.5-1.46c-.2-.2-.44-.34-.64-.54-.48-.47-1-.94-1.41-1.43a6.73,6.73,0,0,1-.85-1.08c-.56-1-1.1-1.94-1.58-2.94-.08-.16.16-.48.25-.72a2.83,2.83,0,0,1,.61.37c.9.95,1.76,1.92,2.65,2.86a8.15,8.15,0,0,0,.93.71,36.49,36.49,0,0,0,2.92,2.24,23.08,23.08,0,0,0,3.51,1.77,2.23,2.23,0,0,0,2,.17c.19-.1.6.13.87.28s.64.53,1,.73a29.08,29.08,0,0,0,2.63,1.29c.54.22,1.18.21,1.75.38,1.52.44,3,1,4.53,1.36a43.16,43.16,0,0,0,6.06,1.48,8.73,8.73,0,0,0,3.57.13,7.93,7.93,0,0,1,1.75,0,18.09,18.09,0,0,0,2.86-.24c.93-.19,1.81-.61,2.72-.89.71-.22,1.43-.36,2.14-.59a4.56,4.56,0,0,0,1.35-.6,3,3,0,0,1,1.58-.63,3,3,0,0,0,.66-.29,14.53,14.53,0,0,0,4.08-2.51.77.77,0,0,1,.25-.14,3.87,3.87,0,0,1,1.13-.45c.95-.07,1.55-.78,2.29-1.21a20.6,20.6,0,0,0,2.32-1.63c.59-.47,1.12-1,1.68-1.54a12.39,12.39,0,0,1,1.3-1.1,9.07,9.07,0,0,1,1.29-.63l.67-.36c-.23,1.22-.41,2.45-.71,3.65a4,4,0,0,1-.79,1.29c-.8,1-1.59,2-2.44,3a7.31,7.31,0,0,1-1.29,1c-.76.56-1.54,1.09-2.41,1.69.26.15.45.24.62.36a5.51,5.51,0,0,1,1,.8c.46.56.82,1.2,1.25,1.77a2.34,2.34,0,0,1,.6,1.68,4.46,4.46,0,0,0,.34,1.16,8,8,0,0,1-.14,3.41A5.4,5.4,0,0,1,175.1,158.73Z" transform="translate(-72.22 -49.41)"/><path class="cls-4" d="M173.23,108.58c.32.61.62,1.23,1,1.82a9.66,9.66,0,0,0,1.64,2.5,20.31,20.31,0,0,1,2.43,3.08,18.55,18.55,0,0,1,2,3.61,3.18,3.18,0,0,1-.29,2.62c0,.09-.21.13-.34.17s-.48.1-.66.13a5.51,5.51,0,0,1-.82-.53,25.31,25.31,0,0,1-2.18-2.08c-.79-.91-1.47-1.91-2.2-2.87a3,3,0,0,1-.23-.27c-.26-.43-.49-.89-.78-1.3s-.79-1-1.2-1.57a1.27,1.27,0,0,0-.41-.31,3.94,3.94,0,0,1-1.49-1.76,9.27,9.27,0,0,0-1.55-2,11.84,11.84,0,0,1-2.34-2.65c-.13-.27-.52-.39-.76-.62-.62-.58-1.26-1.15-1.82-1.79a7.14,7.14,0,0,0-2.59-1.54c-.81-.39-1.63-.79-2.46-1.12-.59-.24-1.22-.38-1.82-.57s-1.19-.38-1.79-.54a2.42,2.42,0,0,0-.66,0c-.32,0-.67.18-1,.09a4,4,0,0,0-2.1,0,.56.56,0,0,1-.32-.09c-.35-.16-.69-.32-1,.12a.41.41,0,0,1-.25.11c-.85,0-1.7,0-2.54.12a10.43,10.43,0,0,0-1.19.31,4.59,4.59,0,0,1-1,.16,4.2,4.2,0,0,0-1.85.42c-.91.42-2,.49-2.9.94-1.07.53-2.31.66-3.25,1.48a6.55,6.55,0,0,1-1,.56c-.76.44-1.54.86-2.26,1.36-1.09.75-2.18,1.5-3.19,2.34a46.69,46.69,0,0,0-3.61,3.27,22.22,22.22,0,0,0-1.82,2.45,5.48,5.48,0,0,1-.52.56,6.66,6.66,0,0,0-2.11,3.2,15.7,15.7,0,0,1-1,2.16c-.26.6-.43,1.24-.67,1.85-.11.29-.3.55-.4.84-.21.64-.38,1.3-.6,2a1.58,1.58,0,0,1-.28.43,1.56,1.56,0,0,1-.77-1.68c0-.46,0-.92,0-1.38a6.58,6.58,0,0,1,.46-2.24c0-.11.13-.23.11-.33-.16-.92.5-1.56.79-2.33.07-.16.19-.33.16-.49a1.92,1.92,0,0,1,.66-1.51,2,2,0,0,0,.36-.6,15.52,15.52,0,0,1,3-4.39,22.86,22.86,0,0,1,1.81-2c.92-.88,1.89-1.7,2.83-2.55.2-.18.33-.45.54-.61a11.07,11.07,0,0,1,2.41-1.67c1.1-.44,1.65-1.51,2.71-2s1.83-.85,2.75-1.28,2-.95,3-1.39a2.89,2.89,0,0,1,.84-.1c.18,0,.41,0,.54,0a6.75,6.75,0,0,1,2.85-.93.47.47,0,0,0,.17,0c.91-.62,2-.23,3-.63a.89.89,0,0,0-.11-.4,4.8,4.8,0,0,1-.87-2.42c-.15-1-.42-2-.56-3a3.86,3.86,0,0,1,.11-1.39,19,19,0,0,0,.17-2.36c.17-1.45.15-3,1.22-4.23a1,1,0,0,0,.14-.31,2,2,0,0,1,2-1.15,1.31,1.31,0,0,1,.75.48,3.77,3.77,0,0,1,.62,3,5,5,0,0,0,.3,2.73c.15.42.43.79.22,1.27a.17.17,0,0,0,0,.17,2.14,2.14,0,0,1-.12,1.8c-.26.72.33,1.29.43,2,0,.1.13.21.11.3-.15.88-.32,1.75-.47,2.63a.45.45,0,0,0,.14.38,2.17,2.17,0,0,0,1.44.47c.38,0,.76.07,1.14.08s.9,0,1.34,0,1.16.22,1.73.34c.14,0,.28.17.42.17,1.48.08,2.67,1,4,1.41a9.6,9.6,0,0,1,2.34,1.44c.24.15.5.3.72.47.75.58,1.46,1.2,2.23,1.76.43.31,1.07.45,1.36.85.43.59,1.21.77,1.52,1.48.12.29.54.43.77.68.43.46.8,1,1.23,1.43a1.61,1.61,0,0,0,.56.26Z" transform="translate(-72.22 -49.41)"/><path class="cls-4" d="M151.5,126.1c-.23.5-.76,1.06-.31,1.84l.78-.22c.25.32.57.69,1.12.25,0,0,0,0,0,0a13.36,13.36,0,0,1,2.2.42c.61.21.35.83.28,1.29a2.58,2.58,0,0,1-.38,1l-1.41,1.11a1.31,1.31,0,0,1-.4.22,10.08,10.08,0,0,0-1.09.24,2,2,0,0,1-1.8-.27c-.83-.5-1.69-.94-2.54-1.4a.44.44,0,0,1-.17-.16l-1.41-2.32a3.38,3.38,0,0,0,.56-2.14,2.57,2.57,0,0,1,.3-1.38,13.38,13.38,0,0,1,1.94-2.53c.12-.13.44-.09.67-.1s.59,0,.88,0a2.13,2.13,0,0,1,1.63.54,9.63,9.63,0,0,1,.72.71,1.55,1.55,0,0,1,0,2.3A6.23,6.23,0,0,1,151.5,126.1Z" transform="translate(-72.22 -49.41)"/></g><g id="occhio_giallo" data-name="occhio giallo"><path class="cls-2" d="M175.1,158.73a3.83,3.83,0,0,1-1.89-2.34,10.11,10.11,0,0,1-1-3.42,5.5,5.5,0,0,0-1.46-3.3c-.12-.26-.17-.62-.38-.76s-.53,0-.77.07c-1.13.43-2.27.88-3.38,1.35-.28.12-.49.4-.77.53-.57.26-1.16.5-1.76.71s-1.24.41-1.87.57a26.8,26.8,0,0,1-2.68.64c-.55.09-1.14,0-1.7,0a6.36,6.36,0,0,0-.71.21c-.58.08-1.17.13-1.82.21a4.2,4.2,0,0,1,.27.78c.1.53.16,1.06.21,1.59s.05.79.1,1.19c.09.76.23,1.52.29,2.28a5.6,5.6,0,0,1-.11,2.7,18.48,18.48,0,0,1-1.18,2.19c-.17.27-.81.07-1.1-.4a8.89,8.89,0,0,1-1.54-4.08c0-1.14-.41-2.17-.54-3.26a7.87,7.87,0,0,0-.76-1.69,3.77,3.77,0,0,1-.11-1,4.8,4.8,0,0,1,0-.57l-1.56-.16c-.42,0-.84-.1-1.26-.18-.72-.14-1.43-.33-2.15-.45-1.1-.18-2.21-.28-3.3-.51a11,11,0,0,1-1.82-.66c-.83-.35-1.68-.68-2.48-1.1a9.08,9.08,0,0,0-2.84-.73,1.4,1.4,0,0,1-.62-.31,7.88,7.88,0,0,0-2.39-.91c-.47-.16-1.32.61-1.34,1.11s0,1.16,0,1.73c0,.27-.21.52-.21.78,0,.74,0,1.48,0,2.22a3.48,3.48,0,0,1-.24,1c-.15.44-.38.86-.49,1.31a1.3,1.3,0,0,1-2,.88l-.22-.15-.3.62-.18,0a18.85,18.85,0,0,1-.64-2.06,12.72,12.72,0,0,1-.34-2.52,12.09,12.09,0,0,1,.31-2.46c.19-.94.48-1.86.73-2.79a.85.85,0,0,1,.15-.3c.29-.44.61-.86.87-1.31a.58.58,0,0,0-.19-.48c-.31-.25-.69-.41-1-.64-.62-.44-1.25-.87-1.83-1.36s-1-1-1.5-1.46c-.2-.2-.44-.34-.64-.54-.48-.47-1-.94-1.41-1.43a6.73,6.73,0,0,1-.85-1.08c-.56-1-1.1-1.94-1.58-2.94-.08-.16.16-.48.25-.72a2.83,2.83,0,0,1,.61.37c.9.95,1.76,1.92,2.65,2.86a8.15,8.15,0,0,0,.93.71,36.49,36.49,0,0,0,2.92,2.24,23.08,23.08,0,0,0,3.51,1.77,2.23,2.23,0,0,0,2,.17c.19-.1.6.13.87.28s.64.53,1,.73a29.08,29.08,0,0,0,2.63,1.29c.54.22,1.18.21,1.75.38,1.52.44,3,1,4.53,1.36a43.16,43.16,0,0,0,6.06,1.48,8.73,8.73,0,0,0,3.57.13,7.93,7.93,0,0,1,1.75,0,18.09,18.09,0,0,0,2.86-.24c.93-.19,1.81-.61,2.72-.89.71-.22,1.43-.36,2.14-.59a4.56,4.56,0,0,0,1.35-.6,3,3,0,0,1,1.58-.63,3,3,0,0,0,.66-.29,14.53,14.53,0,0,0,4.08-2.51.77.77,0,0,1,.25-.14,3.87,3.87,0,0,1,1.13-.45c.95-.07,1.55-.78,2.29-1.21a20.6,20.6,0,0,0,2.32-1.63c.59-.47,1.12-1,1.68-1.54a12.39,12.39,0,0,1,1.3-1.1,9.07,9.07,0,0,1,1.29-.63l.67-.36c-.23,1.22-.41,2.45-.71,3.65a4,4,0,0,1-.79,1.29c-.8,1-1.59,2-2.44,3a7.31,7.31,0,0,1-1.29,1c-.76.56-1.54,1.09-2.41,1.69.26.15.45.24.62.36a5.51,5.51,0,0,1,1,.8c.46.56.82,1.2,1.25,1.77a2.34,2.34,0,0,1,.6,1.68,4.46,4.46,0,0,0,.34,1.16,8,8,0,0,1-.14,3.41A5.4,5.4,0,0,1,175.1,158.73Z" transform="translate(-72.22 -49.41)"/><path class="cls-2" d="M173.23,108.58c.32.61.62,1.23,1,1.82a9.66,9.66,0,0,0,1.64,2.5,20.31,20.31,0,0,1,2.43,3.08,18.55,18.55,0,0,1,2,3.61,3.18,3.18,0,0,1-.29,2.62c0,.09-.21.13-.34.17s-.48.1-.66.13a5.51,5.51,0,0,1-.82-.53,25.31,25.31,0,0,1-2.18-2.08c-.79-.91-1.47-1.91-2.2-2.87a3,3,0,0,1-.23-.27c-.26-.43-.49-.89-.78-1.3s-.79-1-1.2-1.57a1.27,1.27,0,0,0-.41-.31,3.94,3.94,0,0,1-1.49-1.76,9.27,9.27,0,0,0-1.55-2,11.84,11.84,0,0,1-2.34-2.65c-.13-.27-.52-.39-.76-.62-.62-.58-1.26-1.15-1.82-1.79a7.14,7.14,0,0,0-2.59-1.54c-.81-.39-1.63-.79-2.46-1.12-.59-.24-1.22-.38-1.82-.57s-1.19-.38-1.79-.54a2.42,2.42,0,0,0-.66,0c-.32,0-.67.18-1,.09a4,4,0,0,0-2.1,0,.56.56,0,0,1-.32-.09c-.35-.16-.69-.32-1,.12a.41.41,0,0,1-.25.11c-.85,0-1.7,0-2.54.12a10.43,10.43,0,0,0-1.19.31,4.59,4.59,0,0,1-1,.16,4.2,4.2,0,0,0-1.85.42c-.91.42-2,.49-2.9.94-1.07.53-2.31.66-3.25,1.48a6.55,6.55,0,0,1-1,.56c-.76.44-1.54.86-2.26,1.36-1.09.75-2.18,1.5-3.19,2.34a46.69,46.69,0,0,0-3.61,3.27,22.22,22.22,0,0,0-1.82,2.45,5.48,5.48,0,0,1-.52.56,6.66,6.66,0,0,0-2.11,3.2,15.7,15.7,0,0,1-1,2.16c-.26.6-.43,1.24-.67,1.85-.11.29-.3.55-.4.84-.21.64-.38,1.3-.6,2a1.58,1.58,0,0,1-.28.43,1.56,1.56,0,0,1-.77-1.68c0-.46,0-.92,0-1.38a6.58,6.58,0,0,1,.46-2.24c0-.11.13-.23.11-.33-.16-.92.5-1.56.79-2.33.07-.16.19-.33.16-.49a1.92,1.92,0,0,1,.66-1.51,2,2,0,0,0,.36-.6,15.52,15.52,0,0,1,3-4.39,22.86,22.86,0,0,1,1.81-2c.92-.88,1.89-1.7,2.83-2.55.2-.18.33-.45.54-.61a11.07,11.07,0,0,1,2.41-1.67c1.1-.44,1.65-1.51,2.71-2s1.83-.85,2.75-1.28,2-.95,3-1.39a2.89,2.89,0,0,1,.84-.1c.18,0,.41,0,.54,0a6.75,6.75,0,0,1,2.85-.93.47.47,0,0,0,.17,0c.91-.62,2-.23,3-.63a.89.89,0,0,0-.11-.4,4.8,4.8,0,0,1-.87-2.42c-.15-1-.42-2-.56-3a3.86,3.86,0,0,1,.11-1.39,19,19,0,0,0,.17-2.36c.17-1.45.15-3,1.22-4.23a1,1,0,0,0,.14-.31,2,2,0,0,1,2-1.15,1.31,1.31,0,0,1,.75.48,3.77,3.77,0,0,1,.62,3,5,5,0,0,0,.3,2.73c.15.42.43.79.22,1.27a.17.17,0,0,0,0,.17,2.14,2.14,0,0,1-.12,1.8c-.26.72.33,1.29.43,2,0,.1.13.21.11.3-.15.88-.32,1.75-.47,2.63a.45.45,0,0,0,.14.38,2.17,2.17,0,0,0,1.44.47c.38,0,.76.07,1.14.08s.9,0,1.34,0,1.16.22,1.73.34c.14,0,.28.17.42.17,1.48.08,2.67,1,4,1.41a9.6,9.6,0,0,1,2.34,1.44c.24.15.5.3.72.47.75.58,1.46,1.2,2.23,1.76.43.31,1.07.45,1.36.85.43.59,1.21.77,1.52,1.48.12.29.54.43.77.68.43.46.8,1,1.23,1.43a1.61,1.61,0,0,0,.56.26Z" transform="translate(-72.22 -49.41)"/><path class="cls-2" d="M151.5,126.1c-.23.5-.76,1.06-.31,1.84l.78-.22c.25.32.57.69,1.12.25,0,0,0,0,0,0a13.36,13.36,0,0,1,2.2.42c.61.21.35.83.28,1.29a2.58,2.58,0,0,1-.38,1l-1.41,1.11a1.31,1.31,0,0,1-.4.22,10.08,10.08,0,0,0-1.09.24,2,2,0,0,1-1.8-.27c-.83-.5-1.69-.94-2.54-1.4a.44.44,0,0,1-.17-.16l-1.41-2.32a3.38,3.38,0,0,0,.56-2.14,2.57,2.57,0,0,1,.3-1.38,13.38,13.38,0,0,1,1.94-2.53c.12-.13.44-.09.67-.1s.59,0,.88,0a2.13,2.13,0,0,1,1.63.54,9.63,9.63,0,0,1,.72.71,1.55,1.55,0,0,1,0,2.3A6.23,6.23,0,0,1,151.5,126.1Z" transform="translate(-72.22 -49.41)"/></g></svg>